<svg width="58" height="64" viewBox="0 0 58 64" fill="none" xmlns="http://www.w3.org/2000/svg">
<path d="M57.5 3.5V61C57.5 61.663 57.2366 62.2989 56.7678 62.7678C56.2989 63.2366 55.663 63.5 55 63.5C54.337 63.5 53.7011 63.2366 53.2322 62.7678C52.7634 62.2989 52.5 61.663 52.5 61V46H37.5C36.837 46 36.2011 45.7366 35.7322 45.2678C35.2634 44.7989 35 44.163 35 43.5C35.1162 37.5115 35.8726 31.5526 37.2562 25.725C40.3125 13.0719 46.1063 4.59063 54.0156 1.20313C54.3958 1.04029 54.8104 0.974298 55.2223 1.01108C55.6343 1.04786 56.0306 1.18626 56.3759 1.41387C56.7212 1.64149 57.0047 1.95122 57.2008 2.31529C57.397 2.67937 57.4998 3.08644 57.5 3.5ZM27.4656 3.09063C27.4167 2.76236 27.3028 2.44713 27.1308 2.16332C26.9587 1.87951 26.7318 1.63281 26.4634 1.43759C26.195 1.24238 25.8904 1.10257 25.5674 1.02632C25.2443 0.950064 24.9094 0.938894 24.582 0.993457C24.2546 1.04802 23.9414 1.16723 23.6605 1.34412C23.3797 1.52102 23.1369 1.75206 22.9463 2.02378C22.7557 2.29549 22.6211 2.60244 22.5504 2.92671C22.4797 3.25099 22.4742 3.5861 22.5344 3.9125L24.9656 18.5H17.5V3.5C17.5 2.83696 17.2366 2.20108 16.7678 1.73224C16.2989 1.2634 15.663 1 15 1C14.337 1 13.7011 1.2634 13.2322 1.73224C12.7634 2.20108 12.5 2.83696 12.5 3.5V18.5H5.03438L7.46562 3.9125C7.52577 3.5861 7.52033 3.25099 7.4496 2.92671C7.37888 2.60244 7.24429 2.29549 7.05369 2.02378C6.86309 1.75206 6.6203 1.52102 6.33947 1.34412C6.05864 1.16723 5.7454 1.04802 5.41802 0.993457C5.09064 0.938894 4.75566 0.950064 4.43264 1.02632C4.10962 1.10257 3.80502 1.24238 3.5366 1.43759C3.26818 1.63281 3.04132 1.87951 2.86925 2.16332C2.69718 2.44713 2.58334 2.76236 2.53438 3.09063L0.0343752 18.0906C0.0117054 18.2259 0.000208098 18.3628 0 18.5C0.00499523 22.0432 1.26224 25.4705 3.54959 28.1764C5.83693 30.8824 9.00713 32.6927 12.5 33.2875V61C12.5 61.663 12.7634 62.2989 13.2322 62.7678C13.7011 63.2366 14.337 63.5 15 63.5C15.663 63.5 16.2989 63.2366 16.7678 62.7678C17.2366 62.2989 17.5 61.663 17.5 61V33.2875C20.9929 32.6927 24.1631 30.8824 26.4504 28.1764C28.7378 25.4705 29.995 22.0432 30 18.5C29.9998 18.3628 29.9883 18.2259 29.9656 18.0906L27.4656 3.09063Z" fill="white"/>
</svg>
