<svg width="90" height="90" viewBox="0 0 90 90" fill="none" xmlns="http://www.w3.org/2000/svg">
<g id="battery-status-symbol-with-a-leaf-svgrepo-com">
<g id="Group">
<g id="Group_2">
<path id="Vector" d="M67.9407 22H14.4608C12.001 22 10 23.9957 10 26.4487V63.8411C10 66.2941 12.001 68.2899 14.4608 68.2899H67.9407C70.4004 68.2899 72.4016 66.2941 72.4016 63.8411V26.4487C72.4019 23.9957 70.4004 22 67.9407 22ZM60.3099 44.5686C60.0212 44.9716 59.7457 45.3906 59.6607 45.489C58.4414 46.9041 57.1084 48.2255 55.6783 49.4271C52.5339 52.0694 48.822 54.1989 44.738 54.9202C39.2076 55.8971 33.0428 53.7979 28.8344 50.1534C28.4061 49.7823 28.0027 49.3732 27.6343 48.9341C27.2196 48.4396 26.4431 48.1803 25.853 48.4422C24.6977 48.9548 23.5807 49.575 22.5306 50.2668C21.8209 50.7346 21.1344 51.2378 20.471 51.7691C19.5305 52.5227 20.0866 51.1302 20.2877 50.6807C20.6467 49.8784 21.1849 49.1456 21.8046 48.5178C22.9517 47.3564 24.3833 46.4088 25.8202 45.649C26.1145 45.4935 26.4145 45.3396 26.7265 45.1903C30.3882 43.4339 34.4313 42.8299 38.416 43.5089C39.0524 43.6172 39.9978 43.839 40.5274 43.9917C40.8469 44.084 41.1642 44.1848 41.4788 44.2939C44.2418 45.2521 46.8466 46.8692 49.846 46.8422C51.1223 46.8304 52.173 46.6076 52.9408 46.407C53.4593 46.2746 53.8523 46.1199 54.119 46.0224C54.1981 45.9916 54.2654 45.964 54.3212 45.9405C54.4321 45.8934 54.1542 45.8934 53.6995 45.9188C53.4684 45.932 53.1922 45.9433 52.8756 45.9493C52.3555 45.9577 51.727 45.9354 51.0203 45.8802C47.7818 45.627 45.1991 43.5438 42.283 42.3163C38.3713 40.669 33.7683 40.4104 29.7361 41.7872C28.6195 42.1684 27.5413 42.6617 26.523 43.2571C25.9656 43.583 25.5726 43.6932 25.5667 43.455C25.5622 43.2729 25.5528 43.0878 25.5596 43.0233C25.6687 41.9862 26.0503 40.9949 26.6178 40.1233C28.9127 36.5992 34.5977 34.9538 38.6206 34.8432C44.1091 34.6922 49.0738 37.3937 52.9766 41.0807C55.1813 43.0972 58.2383 43.5946 59.8874 43.711C60.532 43.7567 60.6728 44.0627 60.3099 44.5686Z" fill="#008E28"/>
<path id="Vector_2" d="M75.5391 31.6548C75.5391 31.6548 75.3415 31.6548 75.0973 31.6548C74.853 31.6548 74.6554 31.9902 74.6554 32.4033V57.8864C74.6554 58.2998 74.8529 58.6349 75.0973 58.6349H75.5391C77.9988 58.6349 80 56.6389 80 54.1862V36.1039C79.9998 33.6509 77.9988 31.6548 75.5391 31.6548Z" fill="#008E28"/>
</g>
</g>
</g>
</svg>
