<svg width="31" height="24" viewBox="0 0 31 24" fill="none" xmlns="http://www.w3.org/2000/svg">
<path d="M15.8472 0C20.0632 0 23.8088 1.8855 26.4757 4.2195C27.8145 5.391 28.9173 6.7065 29.6948 8.016C30.4588 9.3015 30.9746 10.695 30.9746 12C30.9746 13.305 30.4603 14.6985 29.6948 15.984C28.9173 17.2935 27.8145 18.609 26.4757 19.7805C23.8088 22.1145 20.0617 24 15.8472 24C11.6312 24 7.88569 22.1145 5.21873 19.7805C3.87996 18.609 2.77717 17.2935 1.99963 15.984C1.23418 14.6985 0.719849 13.305 0.719849 12C0.719849 10.695 1.23418 9.3015 1.99963 8.016C2.77717 6.7065 3.87996 5.391 5.21873 4.2195C7.88569 1.8855 11.6327 0 15.8472 0ZM15.8472 3C12.5434 3 9.48163 4.4895 7.2216 6.468C6.09612 7.452 5.20663 8.5275 4.60607 9.5385C3.9919 10.5735 3.74533 11.43 3.74533 12C3.74533 12.57 3.9919 13.4265 4.60607 14.4615C5.20663 15.4725 6.09612 16.5465 7.2216 17.532C9.48163 19.5105 12.5434 21 15.8472 21C19.1511 21 22.2128 19.5105 24.4729 17.532C25.5984 16.5465 26.4878 15.4725 27.0884 14.4615C27.7026 13.4265 27.9491 12.57 27.9491 12C27.9491 11.43 27.7026 10.5735 27.0884 9.5385C26.4878 8.5275 25.5984 7.4535 24.4729 6.468C22.2128 4.4895 19.1511 3 15.8472 3ZM15.8472 7.5C15.9804 7.5 16.112 7.5055 16.2421 7.5165C15.9136 8.08778 15.7836 8.75024 15.8719 9.40197C15.9603 10.0537 16.2622 10.6586 16.7311 11.1236C17.2 11.5886 17.8101 11.8879 18.4673 11.9755C19.1246 12.0631 19.7927 11.9342 20.3688 11.6085C20.4484 12.5118 20.2509 13.4178 19.8023 14.2078C19.3536 14.9979 18.6748 15.6351 17.8547 16.0361C17.0345 16.437 16.1114 16.583 15.2062 16.4548C14.301 16.3266 13.4559 15.9303 12.7818 15.3177C12.1076 14.7051 11.6358 13.9049 11.4282 13.0219C11.2205 12.1389 11.2867 11.2143 11.6181 10.3693C11.9494 9.5242 12.5305 8.7981 13.2852 8.28611C14.0398 7.77412 14.9328 7.50011 15.8472 7.5Z" fill="#008E28"/>
</svg>
