<svg width="30" height="25" viewBox="0 0 30 25" fill="none" xmlns="http://www.w3.org/2000/svg">
<path fill-rule="evenodd" clip-rule="evenodd" d="M24.4812 0.623032C24.5948 0.782184 24.676 0.962158 24.7201 1.15268C24.7641 1.34319 24.7702 1.54052 24.738 1.7334C24.7058 1.92627 24.6359 2.11091 24.5323 2.27677C24.4287 2.44263 24.2935 2.58646 24.1343 2.70005L21.0061 4.93488C20.525 5.27808 20.1591 5.75893 19.9566 6.31412C19.7541 6.86932 19.7244 7.47283 19.8716 8.0452L24.849 3.0678C24.9863 2.9256 25.1506 2.81217 25.3323 2.73414C25.5139 2.65611 25.7093 2.61504 25.907 2.61332C26.1047 2.6116 26.3008 2.64927 26.4837 2.72413C26.6667 2.799 26.833 2.90955 26.9727 3.04935C27.1125 3.18915 27.2231 3.35539 27.298 3.53837C27.3728 3.72135 27.4105 3.9174 27.4088 4.1151C27.4071 4.31279 27.366 4.50817 27.288 4.68982C27.2099 4.87147 27.0965 5.03576 26.9543 5.17311L21.9769 10.1505C22.5493 10.2977 23.1528 10.268 23.708 10.0655C24.2632 9.86298 24.744 9.49708 25.0872 9.01596L27.3221 5.88778C27.5557 5.5777 27.9013 5.37118 28.2851 5.31224C28.6688 5.2533 29.0605 5.3466 29.3764 5.57226C29.6924 5.79792 29.9077 6.13809 29.9765 6.52022C30.0452 6.90236 29.962 7.29624 29.7445 7.61788L27.5111 10.7475C26.654 11.9472 25.3791 12.7829 23.9371 13.0904C22.4951 13.3978 20.9902 13.1548 19.7182 12.4092L16.2982 15.8292L22.4876 22.0185C22.7588 22.2993 22.9089 22.6754 22.9055 23.0658C22.9021 23.4562 22.7455 23.8296 22.4695 24.1057C22.1934 24.3817 21.82 24.5383 21.4296 24.5417C21.0392 24.5451 20.6631 24.395 20.3823 24.1238L14.1929 17.9345L8.00358 24.1238C7.86624 24.266 7.70195 24.3794 7.52029 24.4575C7.33864 24.5355 7.14327 24.5766 6.94557 24.5783C6.74788 24.58 6.55182 24.5423 6.36884 24.4675C6.18586 24.3926 6.01962 24.2821 5.87983 24.1423C5.74003 24.0025 5.62947 23.8362 5.55461 23.6533C5.47975 23.4703 5.44208 23.2742 5.44379 23.0765C5.44551 22.8788 5.48659 22.6835 5.56462 22.5018C5.64265 22.3202 5.75608 22.1559 5.89828 22.0185L12.0876 15.8292L9.69051 13.432C9.00115 13.8043 8.1763 14.0871 7.29934 14.1899C6.40877 14.3022 5.50429 14.206 4.65728 13.9088C3.81027 13.6117 3.04393 13.1217 2.41872 12.4776C1.03554 11.093 0.244931 9.35245 0.0483968 7.68042C-0.14516 6.03518 0.227065 4.27232 1.43307 3.0678C2.63759 1.8618 4.39896 1.48957 6.04419 1.68313C7.71623 1.88115 9.45824 2.67176 10.8414 4.05494C11.4855 4.68015 11.9755 5.4465 12.2726 6.2935C12.5698 7.14051 12.666 8.04499 12.5537 8.93556C12.4532 9.7728 12.1956 10.5836 11.7943 11.3252L14.1929 13.7224L17.6129 10.3039C16.8677 9.03203 16.625 7.5275 16.9324 6.08584C17.2399 4.64417 18.0753 3.36958 19.2746 2.51245L22.4042 0.277608C22.7255 0.0479993 23.1247 -0.0445998 23.5143 0.0201791C23.9038 0.0849581 24.2516 0.301809 24.4812 0.623032ZM3.00535 7.33201C3.12446 8.34446 3.61729 9.4656 4.52403 10.3709C5.30123 11.1481 6.16033 11.3238 6.95242 11.2314C7.81598 11.1302 8.5247 10.7133 8.80163 10.4379C9.07857 10.1624 9.49397 9.4522 9.59522 8.58864C9.68902 7.79506 9.51333 6.93597 8.73612 6.16025C7.82789 5.25351 6.70824 4.76068 5.69579 4.64157C4.65654 4.51948 3.9106 4.79939 3.53689 5.17311C3.16317 5.54682 2.88326 6.29127 3.00535 7.33201Z" fill="#FF9800"/>
</svg>
