<svg width="76" height="58" viewBox="0 0 76 58" fill="none" xmlns="http://www.w3.org/2000/svg">
<path d="M71.9781 34.0812C71.1606 33.4512 70.2234 32.9941 69.2236 32.7379C68.2238 32.4816 67.1823 32.4315 66.1625 32.5906C72.0312 26.6656 75 20.775 75 15C75 6.72811 68.3469 -1.19607e-05 60.1687 -1.19607e-05C57.9988 -0.0136391 55.8521 0.447877 53.8795 1.35214C51.9068 2.2564 50.156 3.58148 48.75 5.23436C47.344 3.58148 45.5932 2.2564 43.6205 1.35214C41.6479 0.447877 39.5012 -0.0136391 37.3312 -1.19607e-05C29.1531 -1.19607e-05 22.5 6.72811 22.5 15C22.5 18.4375 23.5125 21.7781 25.6437 25.3125C23.8982 25.7547 22.3053 26.6619 21.0344 27.9375L13.9656 35H5C3.67392 35 2.40215 35.5268 1.46447 36.4645C0.526784 37.4021 0 38.6739 0 40L0 52.5C0 53.8261 0.526784 55.0978 1.46447 56.0355C2.40215 56.9732 3.67392 57.5 5 57.5H37.5C37.7044 57.4999 37.908 57.4747 38.1063 57.425L58.1063 52.425C58.2337 52.3945 58.3582 52.3527 58.4781 52.3L70.625 47.1312L70.7625 47.0687C71.9299 46.4854 72.9296 45.6145 73.6674 44.538C74.4052 43.4615 74.8567 42.2149 74.9796 40.9157C75.1025 39.6165 74.8925 38.3073 74.3696 37.1116C73.8467 35.9159 73.028 34.8731 71.9906 34.0812H71.9781ZM68.5719 42.5656L56.6969 47.6219L37.1875 52.5H17.5V38.5344L24.5719 31.4656C25.0345 30.9993 25.5852 30.6296 26.1919 30.378C26.7987 30.1264 27.4494 29.9979 28.1063 30H43.75C44.7446 30 45.6984 30.3951 46.4016 31.0983C47.1049 31.8016 47.5 32.7554 47.5 33.75C47.5 34.7445 47.1049 35.6984 46.4016 36.4016C45.6984 37.1049 44.7446 37.5 43.75 37.5H35C34.337 37.5 33.7011 37.7634 33.2322 38.2322C32.7634 38.7011 32.5 39.3369 32.5 40C32.5 40.663 32.7634 41.2989 33.2322 41.7678C33.7011 42.2366 34.337 42.5 35 42.5H45C45.1882 42.4995 45.3757 42.4785 45.5594 42.4375L66.4969 37.6219L66.5938 37.5969C67.2329 37.4194 67.9151 37.4846 68.5091 37.7799C69.103 38.0752 69.5668 38.5798 69.8112 39.1964C70.0555 39.8131 70.0632 40.4984 69.8326 41.1204C69.6021 41.7424 69.1497 42.2571 68.5625 42.5656H68.5719Z" fill="white"/>
</svg>
