<svg width="33" height="32" viewBox="0 0 33 32" fill="none" xmlns="http://www.w3.org/2000/svg">
<g id="package">
<path id="Vector" d="M22.3058 12.5333L10.3058 5.61328" stroke="#008E28" stroke-width="2.5" stroke-linecap="round" stroke-linejoin="round"/>
<path id="Vector_2" d="M28.3058 21.3334V10.6667C28.3053 10.1991 28.1819 9.73978 27.9478 9.33492C27.7138 8.93005 27.3774 8.59385 26.9725 8.36003L17.6391 3.0267C17.2337 2.79265 16.7739 2.66943 16.3058 2.66943C15.8377 2.66943 15.3778 2.79265 14.9725 3.0267L5.63912 8.36003C5.23414 8.59385 4.89776 8.93005 4.66373 9.33492C4.42971 9.73978 4.30627 10.1991 4.30579 10.6667V21.3334C4.30627 21.801 4.42971 22.2603 4.66373 22.6651C4.89776 23.07 5.23414 23.4062 5.63912 23.64L14.9725 28.9734C15.3778 29.2074 15.8377 29.3306 16.3058 29.3306C16.7739 29.3306 17.2337 29.2074 17.6391 28.9734L26.9725 23.64C27.3774 23.4062 27.7138 23.07 27.9478 22.6651C28.1819 22.2603 28.3053 21.801 28.3058 21.3334Z" stroke="#008E28" stroke-width="2.5" stroke-linecap="round" stroke-linejoin="round"/>
<path id="Vector_3" d="M4.66577 9.27979L16.3058 16.0131L27.9458 9.27979" stroke="#008E28" stroke-width="2.5" stroke-linecap="round" stroke-linejoin="round"/>
<path id="Vector_4" d="M16.3058 29.44V16" stroke="#008E28" stroke-width="2.5" stroke-linecap="round" stroke-linejoin="round"/>
</g>
</svg>
