<svg width="70" height="63" viewBox="0 0 70 63" fill="none" xmlns="http://www.w3.org/2000/svg">
<path d="M70 28C69.995 23.3602 68.1497 18.9119 64.8689 15.6311C61.5881 12.3503 57.1398 10.505 52.5 10.5C51.9469 10.5 51.3937 10.5313 50.8469 10.5813C49.4358 7.56964 47.1958 5.02245 44.3893 3.23807C41.5827 1.45368 38.3258 0.505981 35 0.505981C31.6742 0.505981 28.4173 1.45368 25.6107 3.23807C22.8041 5.02245 20.5641 7.56964 19.1531 10.5813C18.6062 10.5313 18.0531 10.5 17.5 10.5C13.5274 10.501 9.6734 11.8535 6.57146 14.3353C3.46952 16.8171 1.30427 20.2804 0.431651 24.1559C-0.440972 28.0314 0.0309654 32.0886 1.76988 35.6603C3.5088 39.2321 6.4112 42.1059 9.99999 43.8094V58C9.99999 59.3261 10.5268 60.5979 11.4645 61.5355C12.4021 62.4732 13.6739 63 15 63H55C56.3261 63 57.5978 62.4732 58.5355 61.5355C59.4732 60.5979 60 59.3261 60 58V43.8094C62.9897 42.3875 65.5156 40.1481 67.2853 37.3502C69.055 34.5524 69.9962 31.3106 70 28ZM42.575 37.3938L45.075 27.3938C45.2449 26.7605 45.6567 26.2194 46.2218 25.8869C46.7868 25.5544 47.4599 25.4572 48.0959 25.6162C48.732 25.7752 49.2801 26.1777 49.6222 26.737C49.9643 27.2963 50.0731 27.9676 49.925 28.6063L47.425 38.6063C47.2898 39.1471 46.9777 39.6272 46.5383 39.9704C46.0989 40.3135 45.5575 40.4999 45 40.5C44.7946 40.5001 44.5899 40.4749 44.3906 40.425C43.7481 40.2634 43.196 39.8535 42.8555 39.2851C42.5151 38.7167 42.4142 38.0365 42.575 37.3938ZM32.5 28C32.5 27.337 32.7634 26.7011 33.2322 26.2322C33.7011 25.7634 34.3369 25.5 35 25.5C35.663 25.5 36.2989 25.7634 36.7678 26.2322C37.2366 26.7011 37.5 27.337 37.5 28V38C37.5 38.663 37.2366 39.2989 36.7678 39.7678C36.2989 40.2366 35.663 40.5 35 40.5C34.3369 40.5 33.7011 40.2366 33.2322 39.7678C32.7634 39.2989 32.5 38.663 32.5 38V28ZM21.8937 25.575C22.5369 25.4143 23.2175 25.5157 23.786 25.8567C24.3544 26.1978 24.7641 26.7507 24.925 27.3938L27.425 37.3938C27.5857 38.0369 27.4843 38.7175 27.1433 39.286C26.8022 39.8544 26.2493 40.2641 25.6062 40.425C25.4019 40.4762 25.1919 40.5014 24.9812 40.5C24.4243 40.4992 23.8835 40.3125 23.4448 39.9694C23.006 39.6263 22.6944 39.1466 22.5594 38.6063L20.0594 28.6063C19.98 28.2868 19.9646 27.9547 20.0139 27.6292C20.0633 27.3038 20.1764 26.9912 20.3469 26.7096C20.5173 26.4279 20.7417 26.1827 21.0071 25.988C21.2726 25.7933 21.5739 25.653 21.8937 25.575ZM55 58H15V45.3188C15.8279 45.4394 16.6634 45.5 17.5 45.5H52.5C53.3366 45.5 54.1721 45.4394 55 45.3188V58Z" fill="white"/>
</svg>
