<svg width="68" height="68" viewBox="0 0 68 68" fill="none" xmlns="http://www.w3.org/2000/svg">
<path d="M66.9187 13.3969C66.6841 13.116 66.3906 12.8902 66.059 12.7352C65.7275 12.5802 65.366 12.4999 65 12.5H14.5875L12.6875 2.05312C12.5828 1.47709 12.2793 0.956047 11.8299 0.580847C11.3805 0.205646 10.8136 8.46162e-05 10.2281 0H2.5C1.83696 0 1.20107 0.263392 0.732233 0.732233C0.263392 1.20107 0 1.83696 0 2.5C0 3.16304 0.263392 3.79893 0.732233 4.26777C1.20107 4.73661 1.83696 5 2.5 5H8.125L16.1125 48.8406C16.3478 50.1408 16.9224 51.3558 17.7781 52.3625C16.597 53.4657 15.7445 54.8744 15.3152 56.4325C14.8858 57.9906 14.8964 59.6372 15.3457 61.1896C15.795 62.7421 16.6655 64.1398 17.8607 65.2277C19.0559 66.3156 20.529 67.0513 22.1167 67.3531C23.7045 67.6549 25.3448 67.5111 26.8558 66.9376C28.3668 66.3641 29.6894 65.3833 30.677 64.104C31.6646 62.8247 32.2786 61.2968 32.4509 59.6898C32.6232 58.0829 32.3471 56.4596 31.6531 55H45.8469C45.2876 56.1709 44.9982 57.4524 45 58.75C45 60.4806 45.5132 62.1723 46.4746 63.6112C47.4361 65.0502 48.8027 66.1717 50.4015 66.8339C52.0004 67.4962 53.7597 67.6695 55.457 67.3319C57.1544 66.9943 58.7135 66.1609 59.9372 64.9372C61.1609 63.7135 61.9942 62.1544 62.3319 60.457C62.6695 58.7597 62.4962 57.0004 61.8339 55.4015C61.1717 53.8027 60.0502 52.4361 58.6112 51.4746C57.1723 50.5132 55.4806 50 53.75 50H23.4906C22.9052 49.9999 22.3383 49.7944 21.8888 49.4192C21.4394 49.044 21.1359 48.5229 21.0312 47.9469L20.0406 42.5H56.2906C58.047 42.4997 59.7476 41.8831 61.096 40.7575C62.4443 39.6319 63.3548 38.0687 63.6687 36.3406L67.4687 15.4469C67.5331 15.0857 67.5172 14.7149 67.4221 14.3606C67.327 14.0063 67.1552 13.6773 66.9187 13.3969ZM27.5 58.75C27.5 59.4917 27.2801 60.2167 26.868 60.8334C26.456 61.4501 25.8703 61.9307 25.1851 62.2145C24.4998 62.4984 23.7458 62.5726 23.0184 62.4279C22.291 62.2832 21.6228 61.9261 21.0983 61.4016C20.5739 60.8772 20.2167 60.209 20.0721 59.4816C19.9274 58.7542 20.0016 58.0002 20.2854 57.3149C20.5693 56.6297 21.0499 56.044 21.6666 55.632C22.2833 55.2199 23.0083 55 23.75 55C24.7446 55 25.6984 55.3951 26.4016 56.0984C27.1049 56.8016 27.5 57.7554 27.5 58.75ZM57.5 58.75C57.5 59.4917 57.2801 60.2167 56.868 60.8334C56.4559 61.4501 55.8703 61.9307 55.1851 62.2145C54.4998 62.4984 53.7458 62.5726 53.0184 62.4279C52.291 62.2832 51.6228 61.9261 51.0983 61.4016C50.5739 60.8772 50.2167 60.209 50.072 59.4816C49.9274 58.7542 50.0016 58.0002 50.2854 57.3149C50.5693 56.6297 51.0499 56.044 51.6666 55.632C52.2833 55.2199 53.0083 55 53.75 55C54.7446 55 55.6984 55.3951 56.4016 56.0984C57.1049 56.8016 57.5 57.7554 57.5 58.75Z" fill="white"/>
</svg>
